<?xml version="1.0" encoding="UTF-8"?>
<svg version="1.1" xmlns="http://www.w3.org/2000/svg" width="100" height="100">
<path d="M0 0 C33 0 66 0 100 0 C100 33 100 66 100 100 C67 100 34 100 0 100 C0 67 0 34 0 0 Z " fill="#FDFDF7" transform="translate(0,0)"/>
<path d="M0 0 C5.28 0 10.56 0 16 0 C15.01 0.66 14.02 1.32 13 2 C13.59889069 5.33337195 14.41638801 8.37871425 15.62890625 11.5390625 C15.94150391 12.36664063 16.25410156 13.19421875 16.57617188 14.046875 C17.23683003 15.77374384 17.89829599 17.50030384 18.56054688 19.2265625 C18.87185547 20.0515625 19.18316406 20.8765625 19.50390625 21.7265625 C19.79080322 22.47502441 20.0777002 23.22348633 20.37329102 23.99462891 C21 26 21 26 21 29 C21.66 29 22.32 29 23 29 C23.12117188 28.443125 23.24234375 27.88625 23.3671875 27.3125 C23.53476562 26.549375 23.70234375 25.78625 23.875 25 C24.0503125 24.17371094 24.225625 23.34742187 24.40625 22.49609375 C25 20 25 20 25.71875 17.97265625 C27.56787334 12.59038652 26.39868398 9.2378516 24.140625 4.1015625 C23.05693026 1.8674856 23.05693026 1.8674856 21 0 C24.96 0 28.92 0 33 0 C32.34 0.33 31.68 0.66 31 1 C32.12250095 4.39666453 33.24844192 7.79217913 34.375 11.1875 C34.69210938 12.14720703 35.00921875 13.10691406 35.3359375 14.09570312 C35.6453125 15.02705078 35.9546875 15.95839844 36.2734375 16.91796875 C36.55622559 17.77156982 36.83901367 18.6251709 37.13037109 19.50463867 C38.01284396 22.03685517 38.98546475 24.51808139 40 27 C41.67877076 24.48184386 42.43570033 22.99535449 43.25390625 20.19921875 C43.57584961 19.10383789 43.57584961 19.10383789 43.90429688 17.98632812 C44.12150391 17.22771484 44.33871094 16.46910156 44.5625 15.6875 C44.78357422 14.94048828 45.00464844 14.19347656 45.23242188 13.42382812 C46.43026224 9.30195447 47.39724126 5.25994658 48 1 C47.01 0.67 46.02 0.34 45 0 C48.63 0 52.26 0 56 0 C55.24847656 0.598125 54.49695313 1.19625 53.72265625 1.8125 C49.82627522 5.72123306 48.86449519 10.81323706 47.4375 16 C46.84122609 18.06382527 46.24487234 20.12762748 45.6484375 22.19140625 C45.36709961 23.18672363 45.08576172 24.18204102 44.79589844 25.20751953 C43.77140791 28.80203569 42.67441903 32.36910736 41.5625 35.9375 C41.25441406 36.93652344 40.94632813 37.93554688 40.62890625 38.96484375 C40.42136719 39.63644531 40.21382812 40.30804688 40 41 C39.34 41 38.68 41 38 41 C36.66147204 37.37689672 35.33006282 33.75121856 34 30.125 C33.6184375 29.09246094 33.236875 28.05992188 32.84375 26.99609375 C32.30234375 25.51689453 32.30234375 25.51689453 31.75 24.0078125 C31.41484375 23.09660645 31.0796875 22.18540039 30.734375 21.24658203 C30 19 30 19 30 17 C29.34 17 28.68 17 28 17 C27.773125 18.175625 27.54625 19.35125 27.3125 20.5625 C25.77989164 27.54313956 23.328741 34.25376175 21 41 C20.34 41 19.68 41 19 41 C18.60208252 39.85934082 18.20416504 38.71868164 17.79418945 37.54345703 C16.31296787 33.31356549 14.80692315 29.09287441 13.29321289 24.87451172 C12.64154317 23.04750042 11.99663258 21.21806356 11.35864258 19.38623047 C10.4403681 16.75341552 9.49813569 14.13028162 8.55078125 11.5078125 C8.27035477 10.68693146 7.98992828 9.86605042 7.70100403 9.02029419 C6.07870646 4.38230731 6.07870646 4.38230731 2.27807617 1.46826172 C1.52631104 1.31373535 0.7745459 1.15920898 0 1 C0 0.67 0 0.34 0 0 Z " fill="#BF9E57" transform="translate(37,40)"/>
<path d="M0 0 C1.20269531 -0.01417969 2.40539062 -0.02835938 3.64453125 -0.04296875 C7.16833425 0.18625328 9.90879528 0.91719021 13.1875 2.1875 C13.1875 5.1575 13.1875 8.1275 13.1875 11.1875 C12.5275 10.1975 11.8675 9.2075 11.1875 8.1875 C8.17973497 4.88866094 6.25087742 3.38509187 1.69921875 2.94921875 C-4.33393861 2.79067105 -8.17801304 2.89212184 -12.8125 7.1875 C-18.17770059 14.14776023 -18.5974406 20.57526438 -17.8125 29.1875 C-16.10635509 35.14438307 -12.80220325 38.68409134 -7.8125 42.1875 C-2.31677905 44.01940698 3.25209684 43.96166126 8.625 41.8125 C10.49401854 40.62726873 12.34605343 39.41513105 14.1875 38.1875 C14 40 14 40 13.1875 42.1875 C7.25615282 46.63601038 0.36030049 46.90686517 -6.8125 46.1875 C-14.50895079 44.38937087 -19.43711282 40.73144642 -23.8125 34.1875 C-26.77729015 28.12901578 -26.73389288 21.28814334 -24.625 14.9375 C-21.75552272 8.22876839 -16.02461243 4.56647329 -9.8125 1.1875 C-6.37168729 0.04056243 -3.62503288 0.01930262 0 0 Z " fill="#BE9E55" transform="translate(32.8125,20.8125)"/>
<path d="M0 0 C2.8605891 1.35937085 4.85927699 2.64520469 7 5 C7.33 3.68 7.66 2.36 8 1 C8.47050781 1.42152344 8.94101562 1.84304687 9.42578125 2.27734375 C10.04839844 2.82519531 10.67101563 3.37304688 11.3125 3.9375 C11.92738281 4.48277344 12.54226562 5.02804688 13.17578125 5.58984375 C17.4770876 8.91483645 22.82449559 8.46756893 28 8 C31.3958048 6.64167808 33.9637727 5.02415153 37 3 C36.8125 4.8125 36.8125 4.8125 36 7 C30.0739975 11.44450187 23.16795463 11.72823922 16 11 C8.73574947 9.22927227 4.23511738 6.12886906 0 0 Z " fill="#B4A071" transform="translate(10,56)"/>
<path d="M0 0 C3.63 0 7.26 0 11 0 C9.87851563 0.87785156 9.87851563 0.87785156 8.734375 1.7734375 C4.70201212 5.80864408 3.72685022 11.27390143 2.25 16.625 C1.94707031 17.67429687 1.64414063 18.72359375 1.33203125 19.8046875 C0.77277083 21.74345696 0.22025201 23.68419328 -0.32324219 25.62744141 C-0.83784672 27.43152758 -1.40674249 29.22022747 -2 31 C-2.99 30.67 -3.98 30.34 -5 30 C-4.79318604 29.33468262 -4.58637207 28.66936523 -4.37329102 27.98388672 C-3.43233156 24.94882346 -2.49736686 21.91194517 -1.5625 18.875 C-1.23701172 17.82828125 -0.91152344 16.7815625 -0.57617188 15.703125 C-0.26357422 14.68476562 0.04902344 13.66640625 0.37109375 12.6171875 C0.65911865 11.68503418 0.94714355 10.75288086 1.24389648 9.79248047 C2.03338638 6.8766957 2.55119844 3.9855898 3 1 C2.01 0.67 1.02 0.34 0 0 Z " fill="#B99E6B" transform="translate(82,40)"/>
<path d="M0 0 C3.96 0 7.92 0 12 0 C11.01 0.495 11.01 0.495 10 1 C10.33 5.29 10.66 9.58 11 14 C10.01 14.66 9.02 15.32 8 16 C7.67386719 15.18015625 7.34773438 14.3603125 7.01171875 13.515625 C6.35623047 11.89914063 6.35623047 11.89914063 5.6875 10.25 C5.25824219 9.18265625 4.82898437 8.1153125 4.38671875 7.015625 C2.98376087 3.68543783 2.98376087 3.68543783 0 0 Z " fill="#BE9C52" transform="translate(58,40)"/>
<path d="M0 0 C5.28 0 10.56 0 16 0 C16 0.33 16 0.66 16 1 C13.03 1 10.06 1 7 1 C7.495 2.2375 7.99 3.475 8.5 4.75 C9.75904303 7.89760758 10 9.44953334 10 13 C10.66 13 11.32 13 12 13 C13.42258812 16.82320557 14.24042276 19.91281305 14 24 C11.82798748 21.82798748 11.38245994 20.59247376 10.44921875 17.71875 C10.16240234 16.87699219 9.87558594 16.03523438 9.58007812 15.16796875 C8.98619518 13.39281754 8.40279992 11.6141223 7.83007812 9.83203125 C6.22236079 4.72303721 6.22236079 4.72303721 2.26953125 1.40625 C1.52058594 1.2721875 0.77164063 1.138125 0 1 C0 0.67 0 0.34 0 0 Z " fill="#B79B60" transform="translate(37,40)"/>
<path d="M0 0 C2.20805524 -0.0544452 4.41650554 -0.09299283 6.625 -0.125 C7.85476562 -0.14820312 9.08453125 -0.17140625 10.3515625 -0.1953125 C13.94316041 -0.0030428 16.66661175 0.69741444 20 2 C20 4.97 20 7.94 20 11 C19.34 10.01 18.68 9.02 18 8 C14.72197685 3.92544787 11.82391397 3.1896137 6.75 2.25 C5.48671875 2.00765625 4.2234375 1.7653125 2.921875 1.515625 C1.95765625 1.34546875 0.9934375 1.1753125 0 1 C0 0.67 0 0.34 0 0 Z " fill="#BCA36E" transform="translate(26,21)"/>
<path d="M0 0 C2.88437779 1.29299694 4.87219421 2.65941363 7 5 C7.33 3.68 7.66 2.36 8 1 C10.31 2.98 12.62 4.96 15 7 C14.67 7.99 14.34 8.98 14 10 C8.03868848 8.65870491 4.19807984 5.25135496 0 1 C0 0.67 0 0.34 0 0 Z " fill="#BA9D5F" transform="translate(10,56)"/>
<path d="M0 0 C0.33 1.32 0.66 2.64 1 4 C0.01 4.33 -0.98 4.66 -2 5 C-5.10656587 8.23082851 -5.80218709 11.76772772 -7 16 C-7.66 16.33 -8.32 16.66 -9 17 C-8.57448104 15.08063787 -8.13408062 13.16457126 -7.6875 11.25 C-7.32205078 9.64898437 -7.32205078 9.64898437 -6.94921875 8.015625 C-6.01022269 5.03247701 -5.13722164 3.25859472 -3 1 C-2.01 0.67 -1.02 0.34 0 0 Z " fill="#F9F0D7" transform="translate(93,40)"/>
<path d="M0 0 C1.86551426 3.58752742 3.42535928 7.27812193 5 11 C5.66 10.01 6.32 9.02 7 8 C8 10 8 10 7.0625 13.125 C6.711875 14.07375 6.36125 15.0225 6 16 C5.34 16 4.68 16 4 16 C2.35 11.05 0.7 6.1 -1 1 C-0.67 0.67 -0.34 0.34 0 0 Z " fill="#BD9E63" transform="translate(52,65)"/>
<path d="M0 0 C2 1.375 2 1.375 4 3 C4 3.66 4 4.32 4 5 C4.66 5 5.32 5 6 5 C5.67 6.65 5.34 8.3 5 10 C4.01 10 3.02 10 2 10 C0.39644899 6.49223216 -0.22036864 3.85645121 0 0 Z " fill="#BD9C48" transform="translate(73,66)"/>
<path d="M0 0 C0.33 0 0.66 0 1 0 C1.28783441 3.70986572 1.45251957 7.29998705 1 11 C-1.5 13.6875 -1.5 13.6875 -4 15 C-3.52229477 13.06213915 -3.04278429 11.12472326 -2.5625 9.1875 C-2.29566406 8.10855469 -2.02882813 7.02960938 -1.75390625 5.91796875 C-1.23922588 3.9259157 -0.65062825 1.95188476 0 0 Z " fill="#FAF6DD" transform="translate(83,58)"/>
<path d="M0 0 C2.375 0.5625 2.375 0.5625 5 2 C6.3125 5.625 6.3125 5.625 7 9 C6.01 9 5.02 9 4 9 C3.896875 8.38125 3.79375 7.7625 3.6875 7.125 C3.12474627 4.63473516 3.12474627 4.63473516 0 3 C0 2.01 0 1.02 0 0 Z " fill="#FBF4DB" transform="translate(38,41)"/>
<path d="M0 0 C4.0544668 3.28218741 5.39970997 8.19912991 7 13 C6.01 14.485 6.01 14.485 5 16 C4.16280617 13.70967689 3.3301071 11.41789043 2.5 9.125 C2.14228516 8.14853516 2.14228516 8.14853516 1.77734375 7.15234375 C0 2.2265625 0 2.2265625 0 0 Z " fill="#FCF4D6" transform="translate(72,54)"/>
<path d="M0 0 C0.99 0.495 0.99 0.495 2 1 C2.625 3.0625 2.625 3.0625 3 5 C3.99 5 4.98 5 6 5 C5.67 6.98 5.34 8.96 5 11 C4.34 11 3.68 11 3 11 C2.49384702 9.73160474 1.99530901 8.46016898 1.5 7.1875 C1.2215625 6.47980469 0.943125 5.77210937 0.65625 5.04296875 C0 3 0 3 0 0 Z " fill="#FCF3DB" transform="translate(55,58)"/>
<path d="M0 0 C0.66 0.33 1.32 0.66 2 1 C1.125 5.75 1.125 5.75 0 8 C-1.32 7.67 -2.64 7.34 -4 7 C-2.68 4.69 -1.36 2.38 0 0 Z " fill="#BD9A51" transform="translate(16,26)"/>
<path d="M0 0 C0.99 0 1.98 0 3 0 C3 1.98 3 3.96 3 6 C2.01 5.67 1.02 5.34 0 5 C0 3.35 0 1.7 0 0 Z M1 6 C1.99 7.485 1.99 7.485 3 9 C2.34 9.66 1.68 10.32 1 11 C1 9.35 1 7.7 1 6 Z " fill="#BF9A4A" transform="translate(69,55)"/>
<path d="M0 0 C0.66 0 1.32 0 2 0 C2.33 1.65 2.66 3.3 3 5 C3.99 5.33 4.98 5.66 6 6 C5.67 7.32 5.34 8.64 5 10 C4.34 10 3.68 10 3 10 C2.01 6.7 1.02 3.4 0 0 Z " fill="#BAA270" transform="translate(72,71)"/>
<path d="M0 0 C0.33 0.99 0.66 1.98 1 3 C-2.08888522 5.05925681 -2.70935927 5.2390374 -6.1875 5.125 C-8.0746875 5.063125 -8.0746875 5.063125 -10 5 C-10 4.67 -10 4.34 -10 4 C-9.36191406 3.79503906 -8.72382812 3.59007813 -8.06640625 3.37890625 C-7.24011719 3.10949219 -6.41382813 2.84007813 -5.5625 2.5625 C-4.73878906 2.29566406 -3.91507813 2.02882813 -3.06640625 1.75390625 C-1.03780412 1.17844506 -1.03780412 1.17844506 0 0 Z " fill="#F7EED7" transform="translate(46,62)"/>
<path d="M0 0 C2.97 1.98 2.97 1.98 6 4 C5.67 4.99 5.34 5.98 5 7 C3.0625 6.3125 3.0625 6.3125 1 5 C0.25 2.375 0.25 2.375 0 0 Z " fill="#BFA168" transform="translate(19,59)"/>
<path d="M0 0 C0.66 0 1.32 0 2 0 C2.66 2.31 3.32 4.62 4 7 C1.525 6.01 1.525 6.01 -1 5 C-0.67 3.35 -0.34 1.7 0 0 Z " fill="#FDF6DB" transform="translate(65,57)"/>
<path d="M0 0 C0.33 1.32 0.66 2.64 1 4 C0.01 4.33 -0.98 4.66 -2 5 C-2.66 5.66 -3.32 6.32 -4 7 C-4 5.35 -4 3.7 -4 2 C-2.68 1.34 -1.36 0.68 0 0 Z " fill="#FCF7E5" transform="translate(93,40)"/>
<path d="M0 0 C0.33 1.32 0.66 2.64 1 4 C-0.32 4.99 -1.64 5.98 -3 7 C-3.66 6.67 -4.32 6.34 -5 6 C-3.35 4.02 -1.7 2.04 0 0 Z " fill="#FCF5E2" transform="translate(21,26)"/>
<path d="M0 0 C0.99 0 1.98 0 3 0 C2.34 2.31 1.68 4.62 1 7 C0.01 6.67 -0.98 6.34 -2 6 C-1.34 4.02 -0.68 2.04 0 0 Z " fill="#BEA879" transform="translate(79,64)"/>
<path d="M0 0 C3.3 0 6.6 0 10 0 C8.68 0.99 7.36 1.98 6 3 C2.75 2.1875 2.75 2.1875 0 1 C0 0.67 0 0.34 0 0 Z " fill="#FEFDE6" transform="translate(26,67)"/>
</svg>
